<svg width="79" height="31" xmlns="http://www.w3.org/2000/svg" xmlns:svg="http://www.w3.org/2000/svg">
	<style type="text/css">.st0{fill:none;}</style>
	<g>
		<title>Layer 1</title>
		<g id="svg_1">
			<path fill="#ffffff" id="svg_2" d="m50,10.5c0,0.1 0,0.2 0,0.3c0,0.1 0,0.2 0,0.3c0,0.2 0,0.3 0.1,0.5c0.1,0.1 0.2,0.2 0.4,0.2c0.3,0 0.5,-0.2 0.7,-0.5c0.1,-0.2 0.1,-0.5 0.1,-0.8l0,-3.7l0,-0.4c0,-0.7 -0.1,-1.2 -0.2,-1.4c-0.1,-0.2 -0.3,-0.4 -0.6,-0.4c-0.2,0 -0.4,0.1 -0.4,0.2c-0.1,0.1 -0.1,0.3 -0.1,0.4l0,0.6c0,0.2 0.1,0.3 0.1,0.4c0,0.1 0,0.3 0,0.6l0,2.7l-0.1,1z" class="st0"/>
			<path fill="#ffffff" id="svg_3" d="m21.6,2.1c0,0.1 0,0.3 0,0.4l0,3.4c0,0.1 0,0.3 0,0.5s0,0.4 0,0.5c0,0.3 0,0.5 0.1,0.7c0.1,0.1 0.2,0.2 0.4,0.2c0.4,0 0.6,-0.3 0.7,-0.8c0.1,-0.3 0.1,-0.7 0.1,-1.3l0,-3.2c0,-0.4 0,-0.7 0,-0.8c0,-0.2 0,-0.3 -0.1,-0.5c0,-0.2 -0.1,-0.3 -0.3,-0.4s-0.2,-0.1 -0.4,-0.1c-0.2,0 -0.3,0 -0.5,0.1c-0.1,0.1 -0.2,0.2 -0.2,0.4c0,0.1 0,0.2 0,0.4c0.2,0.2 0.2,0.3 0.2,0.5z" class="st0"/>
			<path fill="#ffffff" id="svg_4" d="m0.6,12.3c0.1,0 0.2,0 0.3,0s0.2,0 0.3,0l0.4,0c0,0 0.1,0 0.3,0.1s0.3,0.1 0.4,0.1c0.2,0 0.4,-0.1 0.4,-0.3c0,-0.1 -0.1,-0.2 -0.2,-0.3c-0.1,0 -0.2,-0.1 -0.3,-0.2s-0.2,-0.1 -0.2,-0.2c0,-0.1 -0.1,-0.2 -0.1,-0.4c0,0 0,-0.1 0,-0.2c0,-0.1 0,-0.2 0,-0.3l0,-3.7c0,0 0,-0.1 0,-0.4c0,-0.2 0,-0.4 0,-0.6c0,-0.2 0,-0.3 0.1,-0.4c0,-0.1 0.1,-0.1 0.2,-0.1c0.1,0 0.3,0.1 0.4,0.2c0,0 0.1,0.1 0.2,0.2c0.1,0.1 0.2,0.3 0.5,0.5c0.2,0.2 0.4,0.3 0.5,0.3c0.1,0 0.3,-0.2 0.5,-0.5c0.2,-0.4 0.4,-0.7 0.6,-1.1c0.1,-0.2 0.2,-0.3 0.3,-0.4c0.1,-0.2 0.3,-0.3 0.4,-0.3c0.1,0 0.2,0 0.3,0.1c0.1,0.1 0.2,0.2 0.2,0.4c0,0.1 0,0.2 -0.1,0.3c-0.1,0.3 -0.1,0.5 -0.2,0.6c-0.1,0.3 -0.1,0.6 -0.1,1l0,4.6c0,0.2 0,0.4 -0.1,0.4c-0.1,0 -0.1,0.1 -0.2,0.1c-0.1,0.1 -0.1,0.2 -0.1,0.3c0,0.2 0.1,0.3 0.4,0.3c0.1,0 0.1,0 0.3,-0.1c0.1,0 0.3,-0.1 0.5,-0.1l1.4,0c0.1,0 0.3,0 0.4,0.1c0.2,0 0.3,0.1 0.4,0.1c0.2,0 0.4,-0.1 0.4,-0.3c0,-0.1 -0.1,-0.2 -0.2,-0.3c0,0 -0.1,-0.1 -0.2,-0.1c0,-0.1 -0.1,-0.2 -0.1,-0.4c0,-0.9 0,-1.8 0,-2.8c0,-0.9 0,-1.7 0,-2.3c0,-1.9 0,-3.2 0,-3.9s0,-1.1 0,-1.2s0,-0.2 0,-0.3c0,0 0.1,-0.1 0.1,-0.2c0.1,-0.1 0.1,-0.1 0.1,-0.1c0,0 0,-0.1 0,-0.1c0,-0.1 -0.1,-0.2 -0.2,-0.2l-0.5,0.1c-0.1,0 -0.2,0 -0.4,-0.1c-0.2,0 -0.4,0.1 -0.5,0.3c-0.1,0.1 -0.4,0.5 -0.8,1c-0.3,0.5 -0.5,0.8 -0.6,0.9c-0.2,0.3 -0.4,0.6 -0.5,0.7s-0.3,0.2 -0.4,0.2c-0.1,0 -0.3,0 -0.4,-0.1c-0.1,-0.1 -0.3,-0.2 -0.4,-0.3c-0.1,-0.1 -0.2,-0.2 -0.3,-0.3c-0.1,-0.1 -0.1,-0.2 -0.2,-0.4c-0.2,-0.3 -0.5,-0.7 -0.8,-1c-0.5,-0.5 -0.7,-0.8 -0.7,-0.8c-0.1,-0.1 -0.2,-0.1 -0.4,-0.1l-0.5,0.1l-0.4,-0.1c-0.2,0 -0.3,0.1 -0.3,0.2c0,0.1 0.1,0.3 0.2,0.3s0.2,0.2 0.2,0.2s0,0.1 0,0.2l0,2.8l0,6c0,0.9 -0.1,1.4 -0.2,1.6c-0.1,0.1 -0.2,0.2 -0.2,0.3c-0.1,0.1 -0.1,0.2 -0.1,0.3c-0.1,0.1 0,0.1 0.2,0.1z"/>
			<path fill="#ffffff" id="svg_5" d="m9.6,12.2c0,0.2 0.1,0.3 0.3,0.3c0.1,0 0.3,0 0.4,-0.1s0.4,-0.1 0.7,-0.1l1.1,0c0.1,0 0.2,0 0.4,0.1c0.2,0 0.3,0.1 0.4,0.1c0.2,0 0.3,-0.1 0.3,-0.3c0,-0.1 0,-0.2 -0.1,-0.2c-0.1,0 -0.1,-0.1 -0.1,-0.1c-0.1,-0.1 -0.2,-0.1 -0.2,-0.2c0,-0.1 0,-0.2 0,-0.3l0,-1.9c0,-0.1 0,-0.3 0,-0.5c0,-0.2 0,-0.4 0,-0.6c0,-0.1 0,-0.3 0.1,-0.5c0,-0.2 0.1,-0.4 0.2,-0.6c0.2,-0.6 0.5,-1.1 0.7,-1.7c0.1,-0.3 0.3,-0.6 0.4,-1c0,-0.1 0.1,-0.2 0.1,-0.3c0.1,-0.1 0.1,-0.2 0.2,-0.2c0.1,0 0.2,0.1 0.2,0.3c0,0 0,0.1 0,0.2c0,0.1 0,0.2 0,0.2c0,0.2 -0.1,0.5 -0.1,1s0,0.8 0,1.1l0,3.6c0,0.1 0,0.3 0,0.5s0,0.3 0,0.4c0,0.3 0,0.5 -0.1,0.5c0,0 -0.1,0.1 -0.1,0.1c-0.1,0.1 -0.1,0.2 -0.1,0.2c0,0.1 0,0.2 0.1,0.2c0.1,0 0.2,0.1 0.3,0.1c0.1,0 0.3,0 0.4,0s0.3,0 0.5,0l1.1,0c0.2,0 0.3,0 0.4,0.1c0.1,0 0.2,0.1 0.3,0.1c0.2,0 0.4,-0.1 0.4,-0.3c0,-0.1 -0.1,-0.2 -0.2,-0.3c-0.2,-0.1 -0.2,-0.3 -0.2,-0.5c0,-0.9 0,-1.7 0.1,-2.4c0,-0.7 0,-1.8 0,-3.2l0,-1.9c0,-0.5 0,-0.9 0,-1.4c0,-0.5 0,-0.9 0,-1.2c0,-0.2 0.1,-0.4 0.2,-0.4c0.1,0 0.2,-0.1 0.2,-0.3c0,-0.1 -0.1,-0.2 -0.3,-0.2c-0.1,0 -0.2,0 -0.3,0c-0.1,0 -0.2,0 -0.3,0l-1.6,0l-0.3,-0.1l-0.3,0c-0.2,0 -0.3,0.1 -0.3,0.3c0,0.1 0.1,0.2 0.2,0.3s0.2,0.2 0.2,0.2c0,0.1 0,0.2 0,0.2c0,0.3 -0.1,0.6 -0.2,0.9c-0.3,0.7 -0.6,1.4 -0.8,2c-0.1,0.3 -0.2,0.5 -0.3,0.8c-0.1,0.3 -0.2,0.5 -0.3,0.5c-0.1,0 -0.2,-0.1 -0.2,-0.2c0,-0.1 0,-0.4 0,-0.7s0,-0.6 0,-0.9l0,-2.4c0,-0.1 0,-0.2 0,-0.3c0,-0.1 0.1,-0.1 0.1,-0.1c0.1,-0.1 0.1,-0.1 0.2,-0.2c0,0 0,-0.1 0,-0.2c0,-0.2 -0.1,-0.3 -0.3,-0.3c-0.1,0 -0.2,0 -0.3,0c-0.1,0 -0.2,0 -0.4,0l-1.8,0c0,0 -0.1,0 -0.2,0s-0.2,0 -0.3,0c-0.2,0 -0.3,0.1 -0.3,0.2c0,0.1 0.1,0.1 0.2,0.3c0.1,0.1 0.1,0.2 0.1,0.4c0,1.2 0,2.3 -0.1,3.3s0,1.9 0,2.8c0,0.2 0,0.7 0,1.6c0,0.9 0,1.7 0,2.5c0,0.3 -0.1,0.5 -0.2,0.5s-0.2,0 -0.2,0.2z"/>
			<path fill="#ffffff" id="svg_6" d="m18.7,2l0,8.1c0,0.1 0,0.3 0,0.6s0,0.4 0,0.5c0,0.1 0,0.1 0,0.2c0,0.1 -0.1,0.2 -0.2,0.3c0,0 -0.1,0.1 -0.1,0.1c0,0 -0.1,0.1 -0.1,0.1c0,0.1 0,0.2 0,0.2c0,0.1 0.1,0.1 0.3,0.1c0,0 0.2,0 0.3,0s0.3,0 0.4,0l1.6,0c0,0 0.1,0 0.3,0s0.3,0 0.5,0c0.1,0 0.2,0 0.3,0c0.1,0 0.1,-0.1 0.1,-0.2c0,-0.1 0,-0.2 -0.1,-0.2c-0.1,-0.1 -0.1,-0.1 -0.2,-0.2c-0.2,-0.1 -0.2,-0.2 -0.2,-0.3l0,-0.2l0,-1.7c0,-0.5 0.1,-0.8 0.2,-1c0.2,-0.2 0.6,-0.3 1.2,-0.3c0.1,0 0.3,0 0.5,0c0.2,0 0.5,-0.1 0.6,-0.1c0.5,-0.2 0.9,-0.6 1.3,-1.2c0.4,-0.7 0.6,-1.6 0.6,-2.7c0,-0.7 -0.1,-1.3 -0.3,-1.9c-0.3,-0.8 -0.9,-1.4 -1.6,-1.8c-0.5,-0.3 -1,-0.4 -1.5,-0.4l-0.8,0.1l-0.7,0l-1.7,0c-0.1,0 -0.3,0 -0.4,0c-0.2,0 -0.3,0 -0.4,0c-0.3,0 -0.4,0.1 -0.4,0.2c0,0.1 0,0.1 0.1,0.2c0,0 0.1,0.1 0.2,0.1c0.1,0.1 0.1,0.2 0.1,0.4c0,0.2 0,0.3 0,0.5s0.1,0.4 0.1,0.5zm3,-1.1c0.1,-0.1 0.3,-0.1 0.5,-0.1c0.1,0 0.2,0 0.4,0.1s0.2,0.2 0.3,0.4c0,0.2 0.1,0.3 0.1,0.5c0,0.2 0,0.5 0,0.8l0,3.2c0,0.6 0,1.1 -0.1,1.3c-0.1,0.5 -0.3,0.8 -0.7,0.8c-0.2,0 -0.3,-0.1 -0.4,-0.2c-0.1,-0.1 -0.1,-0.4 -0.1,-0.7c0,-0.1 0,-0.3 0,-0.5s0,-0.4 0,-0.5l0,-3.4c0,-0.1 0,-0.3 0,-0.4c0,-0.1 0,-0.3 -0.1,-0.4c0,-0.1 0,-0.3 0,-0.4c-0.1,-0.3 0,-0.5 0.1,-0.5z"/>
			<path fill="#ffffff" id="svg_7" d="m31.1,12.3c0.1,0 0.2,0 0.3,0s0.2,0 0.3,0l0.4,0c0,0 0.1,0 0.3,0.1s0.3,0.1 0.4,0.1c0.2,0 0.4,-0.1 0.4,-0.3c0,-0.1 -0.1,-0.2 -0.2,-0.3c-0.1,0 -0.2,-0.1 -0.3,-0.2s-0.3,-0.2 -0.3,-0.3c0,-0.1 -0.1,-0.2 -0.1,-0.4c0,0 0,-0.1 0,-0.2c0,-0.1 0,-0.2 0,-0.3l0,-3.7c0,0 0,-0.1 0,-0.4c0,-0.2 0,-0.4 0,-0.6c0,-0.2 0,-0.3 0.1,-0.4c0,-0.1 0.1,-0.1 0.2,-0.1c0.1,0 0.3,0.1 0.4,0.2c0,0 0.1,0.1 0.2,0.2c0.1,0.1 0.2,0.3 0.5,0.5c0.2,0.2 0.4,0.3 0.5,0.3c0.1,0 0.3,-0.2 0.5,-0.5c0.2,-0.4 0.4,-0.7 0.6,-1.1c0.1,-0.2 0.2,-0.3 0.3,-0.4c0.1,-0.2 0.3,-0.3 0.4,-0.3c0.1,0 0.2,0 0.3,0.1c0.1,0.1 0.1,0.2 0.1,0.4c0,0.1 0,0.2 -0.1,0.3c-0.1,0.3 -0.1,0.5 -0.2,0.6c-0.1,0.3 -0.1,0.6 -0.1,1l0,4.6c0,0.2 0,0.4 -0.1,0.4c-0.1,0 -0.1,0.1 -0.2,0.1c-0.1,0.1 -0.1,0.2 -0.1,0.3c0,0.2 0.1,0.3 0.4,0.3c0.1,0 0.1,0 0.3,-0.1c0.1,0 0.3,-0.1 0.5,-0.1l1.4,0c0.1,0 0.3,0 0.4,0.1c0.2,0 0.3,0.1 0.4,0.1c0.2,0 0.4,-0.1 0.4,-0.3c0,-0.1 -0.1,-0.2 -0.2,-0.3c0,0 -0.1,-0.1 -0.2,-0.1c0,-0.1 -0.1,-0.2 -0.1,-0.4c0,-0.9 0,-1.8 0,-2.8c0,-0.9 0,-1.7 0,-2.3c0,-1.9 0,-3.2 0,-3.9s0,-1.1 0,-1.2s0,-0.2 0,-0.3c0,0 0.1,-0.1 0.1,-0.2c0.1,-0.1 0.1,-0.1 0.1,-0.1c0,0 0,-0.1 0,-0.1c0,-0.1 -0.1,-0.2 -0.2,-0.2l-0.5,0.1c-0.1,0 -0.2,0 -0.4,-0.1c-0.2,0 -0.4,0.1 -0.5,0.3c-0.1,0.1 -0.4,0.5 -0.8,1c-0.3,0.5 -0.5,0.8 -0.6,0.9c-0.2,0.3 -0.4,0.6 -0.5,0.7s-0.3,0.2 -0.4,0.2c-0.1,0 -0.3,0 -0.4,-0.1c-0.1,-0.1 -0.3,-0.2 -0.4,-0.3c-0.1,-0.1 -0.2,-0.2 -0.3,-0.3c-0.1,-0.1 -0.1,-0.2 -0.2,-0.4c-0.2,-0.3 -0.5,-0.7 -0.8,-1c-0.5,-0.5 -0.7,-0.8 -0.7,-0.8c-0.1,-0.1 -0.2,-0.1 -0.4,-0.1l-0.5,0.1l-0.4,-0.1c-0.2,0 -0.3,0.1 -0.3,0.2c0,0.1 0.1,0.3 0.2,0.3s0.2,0.2 0.2,0.2s0,0.1 0,0.2l0,2.8l0,6c0,0.9 -0.1,1.4 -0.2,1.6c-0.1,0.1 -0.2,0.2 -0.2,0.3c-0.1,0.1 -0.1,0.2 -0.1,0.3c0.1,0.2 0.2,0.2 0.4,0.2z"/>
			<path fill="#ffffff" id="svg_8" d="m40.5,10c0,0.2 0,0.4 0,0.7s0,0.5 0,0.6c0,0.1 0,0.2 0,0.3s-0.1,0.1 -0.2,0.2c-0.1,0.1 -0.1,0.1 -0.1,0.2c0,0.2 0.1,0.3 0.3,0.3c0.1,0 0.2,0 0.3,0c0.1,0 0.2,0 0.4,0l2.9,0l0.3,0c0.2,0 0.4,0 0.5,0.1c0.1,0 0.2,0.1 0.3,0.1c0.1,0 0.2,0.1 0.4,0.1c0.1,0 0.2,0 0.3,-0.1c0,-0.1 0.1,-0.2 0.1,-0.4c0,-0.5 0.1,-1.1 0.3,-1.6c0,-0.1 0.1,-0.2 0.1,-0.3c0,-0.2 -0.1,-0.3 -0.2,-0.4c0,0 -0.1,0 -0.2,0c-0.3,0 -0.4,0.1 -0.6,0.4c-0.1,0.1 -0.1,0.3 -0.2,0.7c-0.1,0.4 -0.2,0.6 -0.4,0.8c-0.2,0.2 -0.4,0.2 -0.5,0.2c-0.3,0 -0.4,-0.1 -0.5,-0.2s-0.1,-0.3 -0.1,-0.6c0,-0.1 0,-0.3 0,-0.4c0,-0.1 0,-0.3 0,-0.4l0,-3.2c0,-0.1 0,-0.2 0,-0.4c0,-0.3 0,-0.5 0.1,-0.7c0.1,-0.2 0.3,-0.3 0.5,-0.3c0.3,0 0.5,0.1 0.7,0.4c0.1,0.2 0.2,0.3 0.2,0.5c0.1,0.2 0.3,0.3 0.5,0.3c0.2,0 0.3,0 0.4,-0.1s0.1,-0.2 0.1,-0.4c0,-0.1 0,-0.2 -0.1,-0.3c-0.2,-0.4 -0.3,-0.7 -0.4,-0.9c-0.1,-0.3 -0.1,-0.4 -0.2,-0.5c-0.1,-0.1 -0.2,-0.1 -0.3,-0.1c-0.2,0 -0.4,0 -0.4,0.1s-0.1,0.1 -0.1,0.2s-0.1,0.2 -0.2,0.2c-0.1,0 -0.2,0.1 -0.3,0.1c-0.3,0 -0.5,-0.1 -0.6,-0.4c0,-0.1 -0.1,-0.3 -0.1,-0.6l0,-2.2c0,-0.1 0,-0.2 0,-0.3c0,-0.1 0,-0.2 0,-0.3c0,-0.2 0,-0.3 0.1,-0.4s0.2,-0.1 0.4,-0.1c0.2,0 0.4,0.1 0.6,0.3c0.2,0.2 0.3,0.4 0.4,0.7c0,0.1 0.1,0.2 0.1,0.5c0.1,0.3 0.3,0.5 0.6,0.5c0.2,0 0.3,-0.1 0.4,-0.2c0,0 0,-0.1 0,-0.3c0,-0.1 0,-0.3 -0.1,-0.5c-0.1,-0.2 -0.1,-0.4 -0.1,-0.5l-0.1,-0.6c0,-0.3 0,-0.4 -0.1,-0.4c-0.1,0 -0.2,0 -0.3,0c-0.2,0 -0.3,0 -0.4,0c-0.1,0 -0.1,0.1 -0.2,0.1c-0.1,0 -0.1,0 -0.2,0l-2.5,0c-0.4,0 -0.8,0 -1,-0.1l-0.4,0c-0.3,0 -0.4,0.1 -0.4,0.3c0,0.1 0,0.2 0.1,0.2c0.1,0 0.1,0.1 0.2,0.1c0,0.1 0,0.2 0,0.4l0,0.5l0,8.1l-0.1,0z"/>
			<path fill="#ffffff" id="svg_9" d="m46.9,11.9c0,0.1 -0.1,0.1 -0.1,0.2c0,0.2 0.1,0.3 0.4,0.3c0.1,0 0.2,0 0.4,0c0.2,0 0.3,0 0.4,0l1.8,0l0.8,0.1l0.7,0c0.8,0 1.4,-0.2 1.8,-0.5c0.3,-0.2 0.6,-0.6 0.8,-1.1c0.4,-0.8 0.6,-1.7 0.6,-2.8c0,-0.8 -0.2,-1.6 -0.5,-2.1c-0.4,-0.6 -1,-1.1 -1.8,-1.5c-0.3,-0.1 -0.5,-0.2 -0.6,-0.2c-0.1,0 -0.3,0 -0.5,0c-0.1,0 -0.2,0 -0.4,0s-0.3,0 -0.3,0c-0.2,0 -0.3,0 -0.3,-0.1c-0.1,-0.1 -0.1,-0.2 -0.1,-0.4c0,-0.1 0,-0.3 0,-0.5c0,-0.2 0,-0.4 0,-0.6c0,-0.1 0,-0.2 0,-0.3s0,-0.2 0,-0.3c0,0 0,-0.1 0,-0.2c0,-0.3 0.1,-0.5 0.2,-0.7c0.2,-0.2 0.4,-0.3 0.7,-0.3c0.3,0 0.5,0.1 0.7,0.3c0.2,0.2 0.3,0.4 0.3,0.7c0,0.1 0.1,0.4 0.1,0.8s0.3,0.6 0.7,0.6c0.2,0 0.3,-0.1 0.3,-0.2c0,-0.1 0.1,-0.2 0.1,-0.4c0,-0.1 0,-0.3 -0.1,-0.5c0,-0.2 -0.1,-0.3 -0.1,-0.4l-0.1,-0.6c0,-0.4 0,-0.7 -0.1,-0.8c0,-0.1 -0.2,-0.1 -0.4,-0.1c-0.1,0 -0.3,0 -0.4,0.1c-0.2,0 -0.3,0.1 -0.5,0.1l-2.9,0c-0.2,0 -0.4,0 -0.7,0c-0.3,0 -0.6,0 -0.7,0c-0.3,0 -0.4,0.1 -0.4,0.3c0,0.1 0,0.1 0.1,0.1s0.1,0.1 0.2,0.1c0.1,0 0.1,0.2 0.1,0.4l0,0.2l0,2.3l0,3.6c0,0.7 0,1.4 0,2.2c0,0.8 0,1.4 0,2c0,0.2 0,0.4 -0.1,0.4c0,-0.3 -0.1,-0.2 -0.1,-0.2zm3.1,-5.7c0,-0.1 0,-0.2 -0.1,-0.4l0,-0.6c0,-0.1 0,-0.3 0.1,-0.4c0.1,-0.1 0.2,-0.2 0.4,-0.2c0.3,0 0.5,0.1 0.6,0.4c0.1,0.2 0.2,0.7 0.2,1.4l0,0.3l0,3.7c0,0.3 0,0.6 -0.1,0.8c-0.1,0.3 -0.3,0.5 -0.7,0.5c-0.2,0 -0.3,-0.1 -0.4,-0.2c-0.1,-0.1 -0.1,-0.3 -0.1,-0.5c0,-0.1 0,-0.2 0,-0.3c0,-0.1 0,-0.2 0,-0.3l0,-1l0,-2.7c0.2,-0.2 0.2,-0.4 0.1,-0.5z"/>
			<path fill="#ffffff" id="svg_10" d="m55.8,10c0,0.2 0,0.4 0,0.7s0,0.5 0,0.6c0,0.1 0,0.2 0,0.3c0,0 -0.1,0.1 -0.2,0.2c-0.2,0 -0.2,0.1 -0.2,0.2c0,0.2 0.1,0.3 0.3,0.3c0.1,0 0.2,0 0.3,0s0.2,0 0.4,0l2.9,0l0.3,0c0.2,0 0.4,0 0.5,0.1c0.1,0 0.2,0.1 0.3,0.1s0.2,0.1 0.4,0.1c0.1,0 0.2,0 0.3,-0.1c0,-0.1 0.1,-0.2 0.1,-0.4c0,-0.5 0.1,-1.1 0.3,-1.6c0,-0.1 0.1,-0.2 0.1,-0.3c0,-0.2 -0.1,-0.3 -0.2,-0.4c0,0 -0.1,0 -0.2,0c-0.3,0 -0.4,0.1 -0.6,0.4c-0.1,0.1 -0.1,0.3 -0.2,0.7c-0.1,0.4 -0.2,0.6 -0.4,0.8c-0.2,0.2 -0.4,0.2 -0.5,0.2c-0.3,0 -0.4,-0.1 -0.5,-0.2s-0.1,-0.3 -0.1,-0.6c0,-0.1 0,-0.3 0,-0.4c0,-0.1 0,-0.3 0,-0.4l0,-3.2c0,-0.1 0,-0.2 0,-0.4c0,-0.3 0,-0.5 0.1,-0.7c0.1,-0.2 0.3,-0.3 0.5,-0.3c0.3,0 0.5,0.1 0.7,0.4c0.1,0.2 0.2,0.3 0.2,0.5c0.1,0.2 0.3,0.3 0.5,0.3s0.3,0 0.4,-0.1c0.1,-0.1 0.1,-0.2 0.1,-0.4c0,-0.1 0,-0.2 -0.1,-0.3c-0.2,-0.4 -0.3,-0.7 -0.4,-0.9c-0.1,-0.3 -0.1,-0.4 -0.2,-0.5c-0.1,-0.1 -0.2,-0.1 -0.3,-0.1c-0.2,0 -0.4,0 -0.4,0.1c0,0.1 -0.1,0.1 -0.1,0.2s-0.1,0.2 -0.2,0.2c-0.1,0 -0.2,0.1 -0.3,0.1c-0.3,0 -0.5,-0.1 -0.6,-0.4c0,-0.1 -0.1,-0.3 -0.1,-0.6l0,-2.2c0,-0.1 0,-0.2 0,-0.3c0,-0.1 0,-0.2 0,-0.3c0,-0.2 0,-0.3 0.1,-0.4s0.2,-0.1 0.4,-0.1c0.2,0 0.4,0.1 0.6,0.3s0.3,0.4 0.4,0.7c0,0.1 0.1,0.2 0.1,0.5c0.1,0.3 0.3,0.5 0.6,0.5c0.2,0 0.3,-0.1 0.4,-0.2c0,0 0,-0.1 0,-0.3c0,-0.1 0,-0.3 -0.1,-0.5c-0.1,-0.2 -0.1,-0.4 -0.1,-0.5l-0.1,-0.6c0,-0.3 0,-0.4 -0.1,-0.4c-0.1,0 -0.2,0 -0.3,0c-0.2,0 -0.3,0 -0.4,0c-0.1,0 -0.1,0.1 -0.2,0.1c-0.1,0 -0.1,0 -0.2,0l-2.5,0c-0.4,0 -0.8,0 -1,-0.1l-0.4,0c-0.3,0 -0.4,0.1 -0.4,0.3c0,0.1 0,0.2 0.1,0.2c0.1,0 0.1,0.1 0.2,0.1c0,0.1 0,0.2 0,0.4l0,0.5l0,8.1z"/>
			<path fill="#ffffff" id="svg_11" d="m62.3,12.4c0.1,0 0.2,0 0.3,0c0.1,0 0.3,0 0.5,0c0.2,0 0.4,0 0.6,0c0.2,0 0.4,0 0.5,0c0.1,0 0.2,0 0.3,0c0.1,0 0.1,-0.1 0.1,-0.2c0,-0.1 0,-0.2 -0.1,-0.2c-0.1,-0.1 -0.1,-0.1 -0.2,-0.1c-0.2,-0.1 -0.3,-0.2 -0.4,-0.3s-0.1,-0.3 -0.1,-0.5c0,-0.5 0.1,-1.4 0.3,-2.7c0.2,-1.1 0.3,-1.9 0.4,-2.4c0.1,-0.6 0.2,-0.9 0.3,-1.1c0.1,-0.4 0.3,-0.6 0.6,-0.6c0.2,0 0.3,0.1 0.4,0.3c0,0.1 0,0.3 0,0.5c0,0.3 0,0.7 0.1,1.1c0.1,0.5 0.2,1.1 0.3,2.1c0,0.1 0.1,0.8 0.3,1.9c0.1,0.4 0.1,0.6 0.1,0.8c0,0.3 0,0.5 -0.1,0.6c0,0 -0.1,0.1 -0.3,0.2c-0.2,0.1 -0.2,0.2 -0.2,0.3c0,0.2 0.1,0.3 0.4,0.3c0.1,0 0.2,0 0.3,0c0.1,0 0.2,0 0.4,-0.1l0.5,0l1,0c0.1,0 0.2,0 0.3,0c0.1,0 0.2,0 0.3,0c0.1,0 0.2,0 0.3,0.1c0.1,0 0.2,0 0.4,0c0.1,0 0.2,0 0.2,-0.1s0.1,-0.1 0.1,-0.3c0,-0.1 0,-0.2 -0.1,-0.2c-0.1,0 -0.1,-0.1 -0.3,-0.1c-0.4,-0.1 -0.4,-0.2 -0.5,-0.3c-0.1,-0.1 -0.1,-0.3 -0.1,-0.5l-0.2,-2.1l-0.4,-3.2c-0.2,-1.1 -0.3,-2.1 -0.5,-3.1c-0.2,-1 -0.4,-1.6 -0.5,-1.9c-0.1,-0.2 -0.2,-0.3 -0.2,-0.4c-0.1,-0.1 -0.2,-0.1 -0.5,-0.1c-0.2,0 -0.4,0 -0.7,0.1l-0.6,0.1l-0.4,0c0,0 -0.1,0 -0.4,0c-0.2,0 -0.4,0 -0.5,0c-0.3,0 -0.5,0.1 -0.5,0.3c0,0.1 0,0.2 0.1,0.3c0.1,0.1 0.1,0.1 0.2,0.2c0.1,0.1 0.3,0.2 0.3,0.2c0.1,0.1 0.1,0.2 0.1,0.4c0,0.2 0,0.4 -0.1,0.8c-0.2,0.8 -0.5,1.7 -0.7,2.5c-0.3,1.3 -0.6,2.6 -0.7,3.9l-0.1,1l-0.1,0.5l-0.1,0.8c0,0.3 -0.1,0.4 -0.3,0.5c-0.1,0 -0.2,0.1 -0.4,0.2c-0.1,0.1 -0.2,0.2 -0.2,0.3c0.1,0.1 0.2,0.2 0.5,0.2z"/>
			<path fill="#ffffff" id="svg_12" d="m70.5,12.2c0,0.2 0.1,0.3 0.3,0.3c0.1,0 0.3,0 0.4,-0.1s0.4,-0.1 0.7,-0.1l1.1,0c0.1,0 0.2,0 0.4,0.1s0.3,0.1 0.4,0.1c0.2,0 0.3,-0.1 0.3,-0.3c0,-0.1 0,-0.2 -0.1,-0.2c-0.1,0 -0.1,-0.1 -0.1,-0.1c-0.1,-0.1 -0.2,-0.1 -0.2,-0.2c0,-0.1 0,-0.2 0,-0.3l0,-1.9c0,-0.1 0,-0.3 0,-0.5c0,-0.2 0,-0.4 0,-0.6c0,-0.1 0,-0.3 0.1,-0.5c0,-0.2 0.1,-0.4 0.2,-0.6c0.2,-0.6 0.5,-1.1 0.7,-1.7c0.1,-0.3 0.3,-0.6 0.4,-1c0,-0.1 0.1,-0.2 0.1,-0.3s0.1,-0.2 0.2,-0.2c0.1,0 0.2,0.1 0.2,0.3c0,0 0,0.1 0,0.2c0,0.1 0,0.2 0,0.2c0,0.2 -0.1,0.5 -0.1,1c0,0.5 0,0.8 0,1.1l0,3.6c0,0.1 0,0.3 0,0.5s0,0.3 0,0.4c0,0.3 0,0.5 -0.1,0.5c0,0 -0.1,0.1 -0.1,0.1c-0.1,0.1 -0.1,0.2 -0.1,0.2c0,0.1 0,0.2 0.1,0.2c0.1,0 0.2,0.1 0.3,0.1c0.1,0 0.3,0 0.4,0s0.3,0 0.5,0l1.1,0c0.2,0 0.3,0 0.4,0.1s0.2,0.1 0.3,0.1c0.2,0 0.4,-0.1 0.4,-0.3c0,-0.1 -0.1,-0.2 -0.2,-0.3c-0.2,-0.1 -0.2,-0.3 -0.2,-0.5c0,-0.9 0,-1.7 0.1,-2.4c0,-0.7 0,-1.8 0,-3.2l0,-1.9c0,-0.5 0,-0.9 0,-1.4c0,-0.5 0,-0.9 0,-1.2c0,-0.2 0.1,-0.4 0.2,-0.4c0.1,0 0.2,-0.1 0.2,-0.3c0,-0.1 -0.1,-0.2 -0.3,-0.2c-0.1,0 -0.2,0 -0.3,0c-0.1,0 -0.2,0 -0.3,0l-1.6,0l-0.3,-0.1l-0.3,0c-0.2,0 -0.3,0.1 -0.3,0.3c0,0.1 0.1,0.2 0.2,0.3s0.2,0.2 0.2,0.2c0,0.1 0,0.2 0,0.2c0,0.3 -0.1,0.6 -0.2,0.9c-0.3,0.7 -0.6,1.4 -0.8,2c-0.1,0.3 -0.2,0.5 -0.3,0.8c-0.1,0.3 -0.2,0.5 -0.3,0.5c-0.1,0 -0.2,-0.1 -0.2,-0.2c0,-0.1 0,-0.4 0,-0.7c0,-0.3 0,-0.6 0,-0.9l0,-2.4c0,-0.1 0,-0.2 0,-0.3c0,-0.1 0.1,-0.1 0.1,-0.1c0.1,-0.1 0.1,-0.1 0.2,-0.2c0,0 0,-0.1 0,-0.2c0,-0.2 -0.1,-0.3 -0.3,-0.3c-0.1,0 -0.2,0 -0.3,0s-0.2,0 -0.4,0l-1.9,0c0,0 -0.1,0 -0.2,0s-0.2,0 -0.3,0c-0.2,0 -0.3,0.1 -0.3,0.2c0,0.1 0.1,0.1 0.2,0.3c0.1,0.1 0.1,0.2 0.1,0.4c0,1.2 0,2.3 -0.1,3.3c0,1 0,1.9 0,2.8c0,0.2 0,0.7 0,1.6c0,0.9 0,1.7 0,2.5c0,0.3 -0.1,0.5 -0.2,0.5s-0.1,0 -0.1,0.2z"/>
			<path fill="#ffffff" id="svg_13" d="m71.8,19.2c-0.4,-0.7 -0.9,-1.3 -1.7,-1.6c-0.6,-0.2 -1.3,-0.3 -1.9,-0.1c-0.5,0.2 -1,0.4 -1.4,0.8c-0.8,0.6 -1.6,0.9 -2.6,1.1c-0.4,0.1 -0.9,0 -1.3,0c-0.1,0 -0.2,-0.1 -0.3,-0.1c-0.8,-0.6 -1.8,-1 -2.7,-1.2c-0.7,-0.2 -1.4,-0.2 -2.1,0c-0.6,0.2 -0.9,1.2 -0.4,1.7c0.1,0.1 0.3,0.3 0.4,0.4c0.2,0.1 0.3,0.1 0.4,-0.1c-0.1,-0.1 -0.3,-0.2 -0.4,-0.4c-0.2,-0.2 -0.3,-0.5 -0.2,-0.8c0.1,-0.3 0.4,-0.4 0.7,-0.4c0.9,0 1.7,0.3 2.5,0.7c0.6,0.3 1.1,0.5 1.5,1c0.4,0.4 0.5,1 0.4,1.5c-0.1,0.4 -0.4,0.7 -0.8,0.8c-0.4,0.2 -0.9,0.3 -1.4,0.3c-0.4,0 -0.7,0 -1.1,0c-0.5,0 -1.1,-0.1 -1.7,-0.3c-0.9,-0.2 -1.7,-0.4 -2.6,-0.7c-0.4,-0.1 -0.8,-0.3 -1.2,-0.4c-0.6,-0.2 -1.2,-0.4 -1.9,-0.6c-0.8,-0.3 -1.7,-0.5 -2.5,-0.8c-0.4,-0.2 -0.8,-0.4 -1.2,-0.6c-0.7,-0.3 -1.5,-0.6 -2.3,-0.4c-0.4,0.1 -0.7,0.3 -0.9,0.7c-0.4,0.8 -0.1,1.7 0.4,2.2c0.5,0.5 1.2,0.8 1.8,1.2c0.1,0 0.2,0.1 0.3,0.1c0.1,0 0.3,0.1 0.3,-0.1c-0.8,-0.3 -1.5,-0.9 -2.1,-1.6c-0.3,-0.4 -0.3,-0.8 -0.3,-1.3c0,-0.3 0.5,-0.5 0.7,-0.5c0.7,-0.1 1.4,0.3 2,0.6c1,0.5 1.8,1.2 2.5,2.1c0.5,0.6 0.5,1.2 0.4,1.9c-0.1,0.5 -0.7,0.9 -1.2,1c-1,0.1 -1.9,-0.2 -2.8,-0.5c-0.9,-0.4 -1.7,-0.8 -2.5,-1.4c-0.4,-0.3 -0.7,-0.7 -1.1,-1c-0.6,-0.6 -1.2,-1.3 -1.6,-2.1c-0.1,-0.1 -0.1,-0.2 -0.2,-0.1c0,0 -0.1,0.2 0,0.2c0.3,0.9 0.9,1.8 1.5,2.5c0.5,0.6 1,1.2 1.7,1.6c1.1,0.8 2.3,1.3 3.6,1.7c0.9,0.2 1.8,0.2 2.6,-0.3c0.5,-0.3 0.8,-0.8 0.9,-1.4c0.1,-0.4 0,-0.9 -0.1,-1.3c-0.1,-0.5 -0.4,-1 -0.8,-1.4c-0.1,-0.2 -0.3,-0.3 -0.5,-0.5c0.1,0 0.1,0 0.2,0c1.1,0.4 2.2,0.9 3.3,1.3c1.1,0.4 2.2,0.7 3.3,1c1,0.3 1.9,0.3 2.9,0.3c0.5,0 1,-0.1 1.5,-0.3c0.6,-0.2 0.9,-0.6 1.3,-1.1c0.4,-0.5 0.4,-1.1 0.2,-1.7c0,-0.2 -0.1,-0.3 -0.2,-0.5c-0.1,-0.2 0,-0.2 0.2,-0.2c0.4,0 0.9,0 1.3,0c0.6,0 1.1,-0.2 1.7,-0.5c0.6,-0.3 1.1,-0.7 1.7,-0.9c0.5,-0.2 1,-0.2 1.5,-0.1c0.6,0.1 1.1,0.6 1.5,1c0.4,0.4 0.5,1 0.4,1.5c0,0.1 -0.1,0.2 -0.1,0.3c0,0.1 -0.1,0.1 -0.1,0.3c0.3,-0.1 0.4,-0.4 0.5,-0.7c0.1,-0.4 0.1,-0.7 0,-1c0.2,-0.4 0.2,-0.6 0.1,-0.8z"/>
			<path fill="#ffffff" id="svg_14" d="m36.9,20.3c0,-0.1 0,-0.1 0,-0.2c-0.1,0 -0.2,0 -0.2,0.1c-0.1,0.1 -0.2,0.3 -0.3,0.5c-0.3,0.5 -0.6,1 -1,1.4c-0.7,0.8 -1.5,1.6 -2.6,2.1c-0.5,0.3 -1.1,0.6 -1.6,0.8c-0.8,0.3 -1.7,0.5 -2.6,0.4c-0.5,-0.1 -0.9,-0.4 -1.1,-0.9c-0.3,-0.7 -0.1,-1.3 0.3,-1.9c0.4,-0.7 1,-1.2 1.7,-1.6c0.7,-0.4 1.4,-0.7 2.1,-1c0.3,-0.1 0.7,-0.1 1,0c0.3,0.1 0.5,0.3 0.5,0.6c0.1,0.5 -0.1,0.9 -0.4,1.3c-0.6,0.6 -1.3,1.2 -2.1,1.5c0,0 -0.1,0.1 -0.1,0.1c0,0 0,0.1 -0.1,0.1c0.5,-0.1 0.9,-0.3 1.4,-0.5c0.3,-0.2 0.7,-0.4 1,-0.7c0.4,-0.2 0.6,-0.6 0.7,-0.9c0.1,-0.2 0.1,-0.5 0.1,-0.8c0.1,-0.7 -0.3,-1.1 -0.9,-1.4c-0.1,-0.1 -0.2,-0.1 -0.3,-0.1c-0.8,-0.1 -1.6,0.1 -2.3,0.5c-0.4,0.2 -0.8,0.5 -1.3,0.6c-1.5,0.5 -3,1 -4.4,1.5c-0.8,0.2 -1.6,0.5 -2.4,0.7c-0.7,0.2 -1.4,0.4 -2.2,0.5c-0.6,0.1 -1.3,0 -1.9,0c-0.6,0 -1.2,-0.2 -1.6,-0.7c-0.6,-0.6 -0.5,-1.3 0,-1.9c0.5,-0.6 1.1,-1 1.8,-1.2c0.4,-0.1 0.8,-0.3 1.2,-0.4c0.4,-0.2 0.8,-0.1 1.1,-0.1c0.3,0 0.5,0.2 0.6,0.5c0.1,0.2 0.1,0.4 -0.1,0.6c-0.3,0.4 -0.7,0.6 -1.2,0.6c-0.1,0 -0.2,0 -0.3,0c0.7,0.3 1.6,-0.1 1.9,-0.7c0.3,-0.5 0,-1.2 -0.5,-1.5c-0.2,-0.1 -0.4,-0.1 -0.6,-0.1c-0.8,-0.1 -1.6,0.1 -2.3,0.4c-0.6,0.2 -1.2,0.5 -1.7,0.9c-0.2,0.2 -0.5,0.2 -0.8,0.3c-0.8,0 -1.5,-0.1 -2.2,-0.4c-0.5,-0.2 -1,-0.5 -1.4,-0.8c-0.5,-0.4 -1.1,-0.7 -1.8,-0.8c-0.5,-0.1 -1,0.1 -1.5,0.2c-0.5,0.2 -0.9,0.6 -1.3,1c-0.3,0.4 -0.6,0.9 -0.6,1.5c0,0.3 0,0.6 0.1,0.8c0,0.1 0.2,0.2 0.3,0.3c0,0 0,0 0.1,0c0,-0.1 0,-0.1 0,-0.2c-0.1,-0.3 -0.1,-0.6 0.1,-1c0.2,-0.5 0.4,-0.9 0.8,-1.2c0.3,-0.3 0.7,-0.4 1.1,-0.5c0.9,-0.2 1.6,0.1 2.3,0.6c0.6,0.4 1.1,0.7 1.8,0.9c0.7,0.1 1.4,0.2 2.1,0.1c0,0 0.1,0 0.2,0c0,0.1 0,0.1 0,0.2c-0.4,0.7 -0.4,1.4 -0.2,2.1c0,0 0,0.1 0.1,0.1c0.4,0.5 0.8,0.9 1.3,1.1c0.4,0.1 0.7,0.2 1.1,0.2c0.5,0 0.9,0 1.4,0c0.4,0 0.7,-0.1 1.1,-0.1c0.5,-0.1 0.9,-0.2 1.4,-0.3c0.8,-0.2 1.7,-0.5 2.5,-0.8c0.5,-0.2 1,-0.4 1.5,-0.5c0.6,-0.2 1.2,-0.5 1.9,-0.8c0.1,0 0.1,0 0.2,0c-0.1,0.1 -0.1,0.2 -0.2,0.3c-0.4,0.4 -0.7,0.9 -0.9,1.4c-0.3,0.5 -0.3,1.3 0.1,2c0.3,0.5 0.8,0.9 1.4,1c0.7,0.2 1.4,0.1 2.1,-0.1c0.8,-0.2 1.6,-0.5 2.3,-0.9c0.5,-0.3 1,-0.7 1.5,-1c0.2,-0.1 0.3,-0.3 0.5,-0.4c0.9,-0.9 1.7,-2 2.2,-3.2c0,-0.1 0.1,-0.1 0.1,-0.2z"/>
			<path fill="#ffffff" id="svg_15" d="m39.6,21.3c-0.2,-0.2 -0.3,-0.2 -0.4,0c-0.6,0.6 -1.2,1.1 -1.6,1.8c-0.2,0.4 -0.5,0.9 -0.7,1.3c-0.2,0.7 -0.3,1.4 -0.2,2.1c0.2,1 0.7,1.8 1.3,2.6c0.4,0.4 0.7,0.9 1.1,1.3c0.2,0.2 0.3,0.2 0.4,0c0.7,-0.9 1.5,-1.7 2,-2.8c0.2,-0.5 0.3,-1.1 0.3,-1.8c0.1,-1.3 -0.5,-2.3 -1.2,-3.2c-0.1,-0.5 -0.5,-0.9 -1,-1.3z"/>
			<path fill="#ffffff" id="svg_16" d="m39.4,20.2c0.7,0 1.3,-0.5 1.3,-1.4c0,-0.6 -0.6,-1.1 -1.3,-1.1c-0.7,-0.1 -1.3,0.5 -1.3,1.3c0.1,0.7 0.6,1.2 1.3,1.2z"/>
			<path fill="#ffffff" id="svg_17" d="m25.5,22.8c-0.5,0.5 -0.8,1 -1.1,1.6c-0.2,0.4 -0.3,0.9 -0.2,1.3c0,0.5 0.2,0.8 0.6,1.1c0.4,0.3 0.9,-0.1 1,-0.6c0,-0.5 -0.1,-1.1 -0.1,-1.6c-0.1,-0.6 -0.2,-1.2 0.2,-1.8c0,-0.1 0,-0.1 0.1,-0.2c0,0 0,0 0,-0.1c-0.3,0.2 -0.4,0.3 -0.5,0.3z"/>
			<path fill="#ffffff" id="svg_18" d="m53.6,23.2c-0.2,-0.2 -0.4,-0.4 -0.6,-0.6c0,0 -0.1,0 -0.1,0.1c0.1,0.1 0.1,0.3 0.2,0.4c0.2,0.4 0.2,0.9 0.1,1.4c-0.1,0.6 -0.2,1.2 -0.2,1.7c0,0.3 0.3,0.8 0.6,0.8c0.3,0.1 0.7,-0.2 0.9,-0.5c0.1,-0.2 0.1,-0.3 0.1,-0.5c0,-0.5 0,-1.1 -0.2,-1.6c-0.3,-0.4 -0.5,-0.9 -0.8,-1.2z"/>
			<path fill="#ffffff" id="svg_19" d="m19,21.7c-0.1,0 -0.2,0.1 -0.2,0.1c0,0 0,0 0,0.1c0.1,0 0.1,0 0.2,0c0.4,0 0.8,0 1.2,0c0.3,0 0.7,-0.1 1,-0.1c0.5,-0.1 1,-0.2 1.5,-0.3c1.1,-0.2 2.1,-0.6 3,-1.1c0.3,-0.2 0.6,-0.3 0.9,-0.5c0.1,0 0.1,-0.1 0.1,-0.2c-0.1,0 -0.2,0 -0.2,0c-0.5,0.2 -0.9,0.3 -1.4,0.5c-0.5,0.2 -1,0.3 -1.5,0.5c-0.7,0.2 -1.4,0.4 -2.1,0.6c-0.4,0.1 -0.8,0.2 -1.2,0.3c-0.3,-0.1 -0.8,0 -1.3,0.1z"/>
			<path fill="#ffffff" id="svg_20" d="m54,20.8c0.7,0.3 1.5,0.5 2.2,0.7c0.4,0.1 0.8,0.1 1.2,0.2c0.3,0.1 0.7,0.1 1,0.1c0.4,0 0.7,0 1.1,0c0.2,0 0.3,0 0.5,0c0,0 0,-0.1 0,-0.1c-0.1,0 -0.1,-0.1 -0.2,-0.1c-0.3,-0.1 -0.7,-0.1 -1,-0.2c-0.4,-0.1 -0.9,-0.2 -1.3,-0.3c-0.5,-0.1 -1,-0.3 -1.5,-0.4c-0.9,-0.3 -1.8,-0.6 -2.7,-0.8c-0.2,-0.1 -0.5,-0.2 -0.7,-0.3c-0.1,0 -0.1,0 -0.2,0c0,0.1 0,0.2 0.1,0.2c0.1,0.1 0.2,0.2 0.4,0.3c0.3,0.4 0.7,0.6 1.1,0.7z"/>
			<path fill="#ffffff" id="svg_21" d="m68.1,20.6c-0.5,-0.1 -0.9,0.5 -0.9,0.9c0,0.4 0.5,0.8 1,0.8c0.5,0 0.9,-0.3 0.9,-0.8c-0.1,-0.5 -0.5,-0.9 -1,-0.9z"/>
			<path fill="#ffffff" id="svg_22" d="m10.8,20.6c-0.5,0 -1,0.3 -0.9,0.9c0,0.5 0.3,0.8 0.9,0.8c0.5,0 0.9,-0.3 0.9,-0.9c-0.1,-0.4 -0.4,-0.8 -0.9,-0.8z"/>
			<rect fill="#ffffff" id="svg_23" height="1" width="78.8" y="14.5" x="0"/>
		</g>
	</g>
</svg>